# xmcd
#
# Track frame offsets:
# 182
# 26882
# 42225
# 64852
# 83800
# 95015
# 125775
# 142377
# 152805
# 176035
# 207140
# 226732
# 241457
# 262762
#
# Disc length: 3736 seconds
#
#
# Revision: 2
# Processed by: cddbd v1.5PL3 Copyright (c) Steve Scherf et al.
# Submitted via: FreeRIP 2.70 
#
DISCID=c80e960e
DTITLE=Lil' Ed and the Blues Imperials - ...What You See Is What You Get
DYEAR=1992
DGENRE=Blues
TTITLE0=Life Is Like Gambling
TTITLE1=Find My Baby
TTITLE2=Older Woman
TTITLE3=Please Help
TTITLE4=Toothache
TTITLE5=Living For Today
TTITLE6=Travellin' Life
TTITLE7=Out Of The House
TTITLE8=Upset Man
TTITLE9=Long, Long Way From Home
TTITLE10=What You See Is What You Get
TTITLE11=Bluesmobile
TTITLE12=What Am I Gonna Do?
TTITLE13=Packin Up
EXTD=
EXTT0=
EXTT1=
EXTT2=
EXTT3=
EXTT4=
EXTT5=
EXTT6=
EXTT7=
EXTT8=
EXTT9=
EXTT10=
EXTT11=
EXTT12=
EXTT13=
PLAYORDER=
